<?xml version="1.0" encoding="UTF-8"?>
<svg width="200" height="200" viewBox="0 0 200 200" xmlns="http://www.w3.org/2000/svg">
    <!-- Fur base texture -->
    <defs>
        <pattern id="furPattern" x="0" y="0" width="3" height="3" patternUnits="userSpaceOnUse">
            <path d="M1,1 L2,2" stroke="#8B4513" stroke-width="0.5" opacity="0.3"/>
        </pattern>
    </defs>
    
    <!-- Jump shadow -->
    <ellipse cx="100" cy="170" rx="40" ry="10" fill="#8B5E3C" opacity="0.2"/>
    
    <!-- Main body (mid-jump) -->
    <g transform="translate(0,-40)">
        <!-- Body core -->
        <path d="M60,130 Q80,110 100,110 Q120,110 140,130 Q145,100 140,80 Q120,60 100,60 Q80,60 60,80 Q55,100 60,130" 
              fill="#B87A56" transform="rotate(10,100,95)"/>
        <path d="M60,130 Q80,110 100,110 Q120,110 140,130 Q145,100 140,80 Q120,60 100,60 Q80,60 60,80 Q55,100 60,130" 
              fill="url(#furPattern)" transform="rotate(10,100,95)"/>
        
        <!-- Fur tufts (flying) -->
        <g opacity="0.7" transform="rotate(10,100,95)">
            <path d="M70,90 Q75,85 80,90" stroke="#8B4513" stroke-width="1" fill="none"/>
            <path d="M90,85 Q95,80 100,85" stroke="#8B4513" stroke-width="1" fill="none"/>
            <path d="M110,90 Q115,85 120,90" stroke="#8B4513" stroke-width="1" fill="none"/>
        </g>
        
        <!-- Body highlights -->
        <path d="M70,100 Q100,120 130,100" 
              fill="none" stroke="#D4A176" stroke-width="12" opacity="0.3" transform="rotate(10,100,95)"/>
        
        <!-- Front paws (kicking) -->
        <g transform="rotate(10,100,95)">
            <path d="M75,120 Q70,130 65,140" stroke="#8B4513" stroke-width="6" stroke-linecap="round" fill="none"/>
            <ellipse cx="65" cy="140" rx="8" ry="5" fill="#8B4513"/>
            <ellipse cx="65" cy="139" rx="6" ry="3" fill="#B87A56"/>
            
            <path d="M125,120 Q130,130 135,140" stroke="#8B4513" stroke-width="6" stroke-linecap="round" fill="none"/>
            <ellipse cx="135" cy="140" rx="8" ry="5" fill="#8B4513"/>
            <ellipse cx="135" cy="139" rx="6" ry="3" fill="#B87A56"/>
        </g>
        
        <!-- Back legs (pushing off) -->
        <g transform="rotate(10,100,95)">
            <path d="M80,125 Q75,135 70,145" stroke="#8B4513" stroke-width="7" stroke-linecap="round" fill="none"/>
            <ellipse cx="70" cy="145" rx="10" ry="6" fill="#8B4513"/>
            <ellipse cx="70" cy="144" rx="8" ry="4" fill="#B87A56"/>
            
            <path d="M120,125 Q125,135 130,145" stroke="#8B4513" stroke-width="7" stroke-linecap="round" fill="none"/>
            <ellipse cx="130" cy="145" rx="10" ry="6" fill="#8B4513"/>
            <ellipse cx="130" cy="144" rx="8" ry="4" fill="#B87A56"/>
        </g>
    </g>
    
    <!-- Head (excited) -->
    <g transform="translate(0,-40) rotate(10,100,95)">
        <!-- Base head shape -->
        <path d="M70,90 Q100,70 130,90 Q135,110 130,120 Q100,140 70,120 Q65,110 70,90" 
              fill="#B87A56"/>
        <path d="M70,90 Q100,70 130,90 Q135,110 130,120 Q100,140 70,120 Q65,110 70,90" 
              fill="url(#furPattern)"/>
        
        <!-- Head highlight -->
        <path d="M80,100 Q100,120 120,100" 
              fill="none" stroke="#D4A176" stroke-width="12" opacity="0.3"/>
        
        <!-- Ears (perked up) -->
        <path d="M75,83 Q70,73 65,68 Q60,66 65,63 Q70,61 75,68 Z" fill="#8B4513"/>
        <path d="M125,83 Q130,73 135,68 Q140,66 135,63 Q130,61 125,68 Z" fill="#8B4513"/>
        
        <!-- Inner ears -->
        <path d="M72,73 Q69,68 67,66 Q65,65 67,63 Q69,62 71,66" fill="#FFA07A" opacity="0.7"/>
        <path d="M128,73 Q131,68 133,66 Q135,65 133,63 Q131,62 129,66" fill="#FFA07A" opacity="0.7"/>
        
        <!-- Excited eyes (wide) -->
        <circle cx="85" cy="100" rx="7" ry="7" fill="#000"/>
        <circle cx="115" cy="100" rx="7" ry="7" fill="#000"/>
        
        <!-- Eye sparkles -->
        <circle cx="87" cy="98" r="2" fill="#FFF"/>
        <circle cx="117" cy="98" r="2" fill="#FFF"/>
        
        <!-- Rosy cheeks -->
        <circle cx="75" cy="105" r="8" fill="#FFB6C1" opacity="0.4"/>
        <circle cx="125" cy="105" r="8" fill="#FFB6C1" opacity="0.4"/>
        
        <!-- Nose -->
        <g transform="translate(0,5)">
            <path d="M95,105 Q100,103 105,105 Q103,108 100,109 Q97,108 95,105" 
                  fill="#FF9EBD"/>
            <path d="M98,106 Q100,105 102,106 Q101,107 100,107 Q99,107 98,106" 
                  fill="#FF7BAC"/>
        </g>
        
        <!-- Excited mouth -->
        <path d="M90,115 Q100,120 110,115" stroke="#8B4513" stroke-width="2" fill="none"/>
    </g>
    
    <!-- Motion lines -->
    <g transform="translate(0,-40)">
        <path d="M50,140 L45,145" stroke="#8B4513" stroke-width="1" fill="none"/>
        <path d="M150,140 L155,145" stroke="#8B4513" stroke-width="1" fill="none"/>
        <path d="M60,120 L55,125" stroke="#8B4513" stroke-width="1" fill="none"/>
        <path d="M140,120 L145,125" stroke="#8B4513" stroke-width="1" fill="none"/>
        <path d="M70,100 L65,105" stroke="#8B4513" stroke-width="1" fill="none"/>
        <path d="M130,100 L135,105" stroke="#8B4513" stroke-width="1" fill="none"/>
    </g>
</svg> 